<svg width="696.103" xmlns="http://www.w3.org/2000/svg" height="651.677" id="screenshot-9695d23a-b816-8013-8006-ce119e3cf58e" viewBox="0 -76 696.103 651.677" xmlns:xlink="http://www.w3.org/1999/xlink" fill="none" version="1.1"><g id="shape-9695d23a-b816-8013-8006-ce119e3cf58e"><g class="frame-container-wrapper"><g class="frame-container-blur"><g class="frame-container-shadows"><g fill="none"><g class="fills" id="fills-9695d23a-b816-8013-8006-ce119e3cf58e"><rect rx="0" ry="0" x="0" y="0" width="696.102540378444" height="575.6774200971543" transform="matrix(1.000000, 0.000000, 0.000000, 1.000000, 0.000000, 0.000000)" class="frame-background"/></g><g class="frame-children"><g id="shape-eb70a945-e9dd-8007-8006-aedbc72f6ced"><g class="fills" id="fills-eb70a945-e9dd-8007-8006-aedbc72f6ced"><rect rx="0" ry="0" x="313.1240103484558" y="-56.94237886466829" transform="matrix(0.866025, 0.500000, -0.500000, 0.866025, 179.355463, -183.248459)" width="236.99999999999994" height="599.9999999999999" style="fill: rgb(255, 255, 255); fill-opacity: 1;"/></g></g><g id="shape-eb70a945-e9dd-8007-8006-aed96088d568"><defs><clipPath id="frame-clip-eb70a945-e9dd-8007-8006-aed96088d568-render-3" class="frame-clip frame-clip-def"><rect rx="0" ry="0" x="0" y="72" width="424.9999999999999" height="450" transform="matrix(1.000000, 0.000000, 0.000000, 1.000000, 0.000000, 0.000000)"/></clipPath></defs><g class="frame-container-wrapper"><g class="frame-container-blur"><g class="frame-container-shadows"><g clip-path="url(#frame-clip-eb70a945-e9dd-8007-8006-aed96088d568-render-3)" fill="none"><g class="fills" id="fills-eb70a945-e9dd-8007-8006-aed96088d568"><rect width="424.9999999999999" height="450" class="frame-background" x="0" transform="matrix(1.000000, 0.000000, 0.000000, 1.000000, 0.000000, 0.000000)" style="fill: rgb(255, 255, 255); fill-opacity: 1;" ry="0" rx="0" y="72"/></g><g class="frame-children"><g id="shape-eb70a945-e9dd-8007-8006-aedc573eb443"><g class="fills" id="fills-eb70a945-e9dd-8007-8006-aedc573eb443"><path d="M192,44.88189697265625L288.59259033203125,19L424.47265625,526.1110229492188L327.8800048828125,551.992919921875L192,44.88189697265625" style="fill: rgb(5, 48, 173); fill-opacity: 0.05;"/></g></g><g id="shape-eb70a945-e9dd-8007-8006-aedcb80560d4"><g class="fills" id="fills-eb70a945-e9dd-8007-8006-aedcb80560d4"><rect rx="0" ry="0" x="69.55127018922195" y="12.491922531259547" transform="matrix(0.866025, 0.500000, -0.500000, 0.866025, 158.512794, -21.593957)" width="100" height="544.9999999999997" style="fill: rgb(5, 48, 173); fill-opacity: 0.05;"/></g></g></g></g></g></g></g></g><g id="shape-eb70a945-e9dd-8007-8006-aedb36dbc9dd" rx="0" ry="0"><g id="shape-eb70a945-e9dd-8007-8006-aedaf7a8e73d"><g class="fills" id="fills-eb70a945-e9dd-8007-8006-aedaf7a8e73d"><path d="M609.5,0L674.451904296875,37.5L581.2142333984375,198.99237060546875L370.951904296875,563.1773681640625L306,525.6773681640625L609.5,0" style="fill: rgb(5, 48, 173); fill-opacity: 0.05;"/></g></g><g id="shape-eb70a945-e9dd-8007-8006-aedb13a6d77f"><g class="fills" id="fills-eb70a945-e9dd-8007-8006-aedb13a6d77f"><rect rx="0" ry="0" x="526.0272228311386" y="4.4284560107327025" transform="matrix(0.866025, 0.500000, -0.500000, 0.866025, 221.113195, -229.348767)" width="25" height="587" style="fill: rgb(5, 48, 173); fill-opacity: 1;"/></g></g></g></g></g></g></g></g></g></svg>